<?xml version="1.0" encoding="UTF-8" standalone="no"?>
<!DOCTYPE svg PUBLIC "-//W3C//DTD SVG 1.1//EN" "http://www.w3.org/Graphics/SVG/1.1/DTD/svg11.dtd">
<svg version="1.1" xmlns="http://www.w3.org/2000/svg" xmlns:xlink="http://www.w3.org/1999/xlink" preserveAspectRatio="xMidYMid meet" viewBox="0 0 24 24" width="24" height="24"><defs><path d="M16.4 10.94C16.57 10.94 16.7 11.08 16.7 11.25C16.7 11.47 16.7 11.82 16.7 12.04C16.7 12.21 16.57 12.34 16.4 12.34C15.47 12.34 13 12.34 12.07 12.34C11.9 12.34 11.76 12.21 11.76 12.04C11.76 11.82 11.76 11.47 11.76 11.25C11.76 11.08 11.9 10.94 12.07 10.94C13 10.94 15.47 10.94 16.4 10.94Z" id="gAZaQdRM"></path><path d="M16.64 7.19C16.8 7.19 16.94 7.32 16.94 7.49C16.94 7.71 16.94 8.06 16.94 8.28C16.94 8.45 16.8 8.58 16.64 8.58C15.71 8.58 13.23 8.58 12.31 8.58C12.14 8.58 12 8.45 12 8.28C12 8.06 12 7.71 12 7.49C12 7.32 12.14 7.19 12.31 7.19C13.23 7.19 15.71 7.19 16.64 7.19Z" id="f2FPd8TUDh"></path><path d="M15.36 16.19C15.48 16.19 15.59 16.08 15.59 15.96C15.59 15.72 15.59 15.25 15.59 15.02C15.59 14.89 15.48 14.79 15.36 14.79C14.66 14.79 12.8 14.79 12.11 14.79C11.98 14.79 11.88 14.89 11.88 15.02C11.88 15.25 11.88 15.72 11.88 15.96C11.88 16.08 11.98 16.19 12.11 16.19C12.8 16.19 14.66 16.19 15.36 16.19Z" id="bJ0F33tEs"></path><path d="M10 7.89C10 8.52 9.48 9.04 8.84 9.04C8.2 9.04 7.68 8.52 7.68 7.89C7.68 7.25 8.2 6.73 8.84 6.73C9.48 6.73 10 7.25 10 7.89Z" id="cIGu1zuNn"></path><path d="M10 11.64C10 12.28 9.48 12.8 8.84 12.8C8.2 12.8 7.68 12.28 7.68 11.64C7.68 11 8.2 10.49 8.84 10.49C9.48 10.49 10 11 10 11.64Z" id="a1B3CFo57w"></path><path d="M10 15.49C10 16.13 9.48 16.65 8.84 16.65C8.2 16.65 7.68 16.13 7.68 15.49C7.68 14.85 8.2 14.33 8.84 14.33C9.48 14.33 10 14.85 10 15.49Z" id="a12GzJDFhU"></path><path d="M18.03 15.52L18.03 18.72L5.97 18.72L5.97 4.11L14.23 4.11L14.23 5.91" id="a3dVw4sgbi"></path></defs><g><g><g><use xlink:href="#gAZaQdRM" opacity="1" fill="#983f56" fill-opacity="1"></use></g><g><use xlink:href="#f2FPd8TUDh" opacity="1" fill="#ff3366" fill-opacity="1"></use><g><use xlink:href="#f2FPd8TUDh" opacity="1" fill-opacity="0" stroke="#0a3a48" stroke-width="0" stroke-opacity="1"></use></g></g><g><use xlink:href="#bJ0F33tEs" opacity="1" fill="#983f56" fill-opacity="1"></use></g><g><use xlink:href="#cIGu1zuNn" opacity="1" fill="#ff3366" fill-opacity="1"></use></g><g><use xlink:href="#a1B3CFo57w" opacity="1" fill="#983f56" fill-opacity="1"></use></g><g><use xlink:href="#a12GzJDFhU" opacity="1" fill="#983f56" fill-opacity="1"></use></g><g><g><use xlink:href="#a3dVw4sgbi" opacity="1" fill-opacity="0" stroke="#983f56" stroke-width="1" stroke-opacity="1"></use></g></g></g></g></svg>